<?xml version="1.0" standalone="no"?>
<!DOCTYPE svg PUBLIC "-//W3C//DTD SVG 20010904//EN"
 "http://www.w3.org/TR/2001/REC-SVG-20010904/DTD/svg10.dtd">
<svg version="1.0" xmlns="http://www.w3.org/2000/svg"
 width="512.000000pt" height="512.000000pt" viewBox="0 0 512.000000 512.000000"
 preserveAspectRatio="xMidYMid meet">
<metadata>
Created by potrace 1.14, written by Peter Selinger 2001-2017
</metadata>
<g transform="translate(0.000000,512.000000) scale(0.100000,-0.100000)"
fill="#000000" stroke="none">
<path d="M2430 4155 c-58 -35 -116 -70 -130 -77 -14 -7 -36 -20 -50 -29 -14
-9 -68 -41 -120 -71 -52 -30 -190 -110 -306 -177 l-212 -123 -36 -79 c-19 -43
-38 -79 -41 -79 -4 0 -26 12 -51 26 l-44 26 -257 -150 c-142 -82 -276 -160
-299 -173 -88 -51 -267 -155 -308 -179 -76 -44 -82 -52 -168 -250 l-85 -195 1
-218 1 -217 175 -101 c96 -56 193 -112 215 -124 66 -38 343 -198 450 -260 211
-122 879 -508 914 -527 20 -11 41 -24 46 -28 6 -4 33 -20 60 -35 28 -15 123
-70 213 -122 97 -56 170 -92 179 -89 13 5 603 346 868 501 118 69 606 353
1015 590 179 104 328 192 331 197 3 4 5 108 4 231 l-1 222 -83 185 c-45 102
-88 190 -94 197 -7 7 -221 133 -477 280 l-464 269 -53 -29 -53 -28 -26 58
c-14 32 -29 67 -34 79 -8 21 -938 565 -962 563 -7 0 -60 -29 -118 -64z"/>
</g>
</svg>
